<svg width="24" height="24" viewBox="0 0 24 24" fill="none" xmlns="http://www.w3.org/2000/svg">
<path d="M16.2964 17.2439C18.8023 16.9446 20.9843 15.4006 21.2585 13.9898C21.6906 11.7674 21.6549 8.56632 21.6549 8.56632C21.6549 4.22771 18.8124 2.95599 18.8124 2.95599C17.3791 2.29772 14.918 2.0209 12.3611 2H12.2983C9.74141 2.0209 7.28192 2.29772 5.84857 2.95599C5.84857 2.95599 3.00591 4.22771 3.00591 8.56632C3.00591 8.82934 3.00455 9.10599 3.00314 9.39399C2.99921 10.1938 2.99485 11.0812 3.01798 12.0074C3.12121 16.2504 3.79586 20.432 7.71875 21.4703C9.52751 21.9491 11.0805 22.0493 12.3312 21.9805C14.5993 21.8548 15.8725 21.1711 15.8725 21.1711L15.7977 19.5254C15.7977 19.5254 14.1769 20.0365 12.3566 19.9742C10.5531 19.9124 8.64921 19.7797 8.35752 17.5655C8.33058 17.371 8.31711 17.163 8.31711 16.9446C8.31711 16.9446 10.0875 17.3774 12.3312 17.4802C13.7031 17.5431 14.9897 17.3998 16.2964 17.2439ZM18.3019 14.1562V8.9029C18.3019 7.82924 18.0286 6.97604 17.4795 6.34482C16.9132 5.7136 16.1716 5.39001 15.2512 5.39001C14.186 5.39001 13.3795 5.79937 12.8463 6.61819L12.3278 7.48723L11.8094 6.61819C11.2761 5.79937 10.4696 5.39001 9.40456 5.39001C8.48402 5.39001 7.74246 5.7136 7.17621 6.34482C6.62709 6.97604 6.35372 7.82924 6.35372 8.9029V14.1562H8.43499V9.05731C8.43499 7.98247 8.88724 7.43691 9.79183 7.43691C10.792 7.43691 11.2934 8.08408 11.2934 9.36377V12.1547H13.3624V9.36377C13.3624 8.08408 13.8636 7.43691 14.8638 7.43691C15.7684 7.43691 16.2207 7.98247 16.2207 9.05731V14.1562H18.3019Z" fill="black"/>
</svg>
